<?xml version="1.0" standalone="no"?>
<!DOCTYPE svg PUBLIC "-//W3C//DTD SVG 20010904//EN"
 "http://www.w3.org/TR/2001/REC-SVG-20010904/DTD/svg10.dtd">
<svg version="1.0" xmlns="http://www.w3.org/2000/svg"
 width="22.000000pt" height="22.000000pt" viewBox="0 0 22.000000 22.000000"
 preserveAspectRatio="xMidYMid meet">

<g transform="translate(0.000000,22.000000) scale(0.100000,-0.100000)"
fill="#000000" stroke="none">
<path d="M36 191 c-28 -29 -28 -51 0 -51 20 0 18 -16 -6 -48 -12 -15 -22 -41
-23 -57 -2 -30 -1 -30 55 -33 32 -2 76 3 100 12 l43 14 -3 64 c-4 87 -4 88
-61 88 -40 0 -50 3 -54 20 -7 27 -18 25 -51 -9z m60 -42 c18 -20 5 -33 -15
-15 -9 8 -27 16 -41 19 -25 4 -24 4 3 6 22 1 27 6 28 29 2 26 2 27 6 2 3 -14
11 -32 19 -41z m-36 47 c0 -2 -8 -10 -17 -17 -16 -13 -17 -12 -4 4 13 16 21
21 21 13z m130 -36 c0 -5 -7 -10 -15 -10 -8 0 -15 -9 -15 -20 0 -11 5 -20 11
-20 5 0 7 5 4 10 -3 6 -1 10 5 10 7 0 10 -7 7 -15 -4 -8 -2 -17 3 -20 15 -9
12 -65 -3 -65 -21 0 -28 12 -16 26 8 10 6 19 -5 36 -9 12 -16 30 -16 40 0 12
-8 18 -24 18 -14 0 -28 5 -31 10 -4 6 13 10 44 10 28 0 51 -4 51 -10z m-50
-30 c0 -5 -2 -10 -4 -10 -3 0 -8 5 -11 10 -3 6 -1 10 4 10 6 0 11 -4 11 -10z
m-12 -32 c7 -7 12 -8 12 -4 0 5 7 3 15 -4 8 -7 15 -18 15 -24 0 -6 -7 -2 -15
8 -13 17 -15 18 -15 3 0 -19 -4 -20 -67 -21 -45 -1 -49 3 -33 35 12 22 68 27
88 7z m-58 -58 c0 -5 -4 -10 -10 -10 -5 0 -10 5 -10 10 0 6 5 10 10 10 6 0 10
-4 10 -10z m75 -20 c-3 -5 -36 -9 -73 -8 l-67 2 70 6 c39 4 71 7 73 8 2 1 0
-2 -3 -8z"/>
</g>
</svg>
